<svg width="70" height="70" viewBox="0 0 70 70" fill="none" xmlns="http://www.w3.org/2000/svg">
<g id="icons / hand-right">
<path id="Vector" d="M10.8281 28.9078C12.95 27.702 15.601 28.5961 16.7494 30.7781L22.4068 42.3186C22.5129 42.537 22.698 42.707 22.9247 42.7941C23.1514 42.8812 23.4027 42.8788 23.6277 42.7875C23.806 42.7165 23.9589 42.5935 24.0664 42.4346C24.1739 42.2756 24.2311 42.088 24.2307 41.8961V9.84375C24.2307 7.94199 25.9875 6.5625 27.8906 6.5625C29.7938 6.5625 31.4453 7.94199 31.4453 9.84375V31.2594C31.4407 31.6593 31.5923 32.0453 31.8677 32.3353C32.1432 32.6253 32.5209 32.7965 32.9205 32.8125C33.1204 32.8163 33.3191 32.7802 33.5049 32.7064C33.6906 32.6325 33.8598 32.5223 34.0025 32.3823C34.1453 32.2423 34.2586 32.0752 34.336 31.8908C34.4133 31.7065 34.4532 31.5085 34.4531 31.3086V3.28125C34.4531 1.37949 35.9488 0 37.852 0C39.7551 0 41.2891 1.37949 41.2891 3.28125V31.2594C41.2845 31.6593 41.436 32.0453 41.7115 32.3353C41.9869 32.6253 42.3646 32.7965 42.7643 32.8125C42.9642 32.8163 43.1628 32.7802 43.3486 32.7064C43.5344 32.6325 43.7036 32.5223 43.8463 32.3823C43.989 32.2423 44.1024 32.0752 44.1797 31.8908C44.2571 31.7065 44.2969 31.5085 44.2969 31.3086V7.65625C44.2969 5.75449 45.9484 4.375 47.8516 4.375C49.7547 4.375 51.4063 5.89121 51.4063 7.79297V33.4469C51.4017 33.8468 51.5532 34.2328 51.8287 34.5228C52.1041 34.8128 52.4818 34.984 52.8815 35C53.0814 35.0038 53.28 34.9677 53.4658 34.8939C53.6516 34.82 53.8208 34.7098 53.9635 34.5698C54.1062 34.4298 54.2195 34.2627 54.2969 34.0783C54.3743 33.894 54.4141 33.696 54.4141 33.4961V16.4062C54.4141 14.5045 55.9289 13.125 57.832 13.125C59.7352 13.125 61.2664 14.5223 61.25 16.4062V45.9375C61.25 61.9897 51.4063 70 39.375 70H37.1875C25.1563 70 21.3678 64.5859 18.5938 57.9688L9.20528 34.8633C8.29473 32.4023 8.70762 30.1123 10.8281 28.9078Z" fill="white"/>
</g>
</svg>
